<mxfile host="drawio-plugin" modified="2024-07-10T16:43:23.118Z" agent="Mozilla/5.0 (Windows NT 10.0; Win64; x64) AppleWebKit/537.36 (KHTML, like Gecko) Chrome/122.0.0.0 Safari/537.36" etag="8EV3LvbEXHsFRoMheRuO" version="22.1.22" type="embed">
  <diagram id="23iRSUPoRavnBvh4doch" name="Page-1">
    <mxGraphModel dx="1924" dy="770" grid="1" gridSize="12" guides="1" tooltips="1" connect="1" arrows="1" fold="1" page="1" pageScale="1" pageWidth="827" pageHeight="1169" math="0" shadow="0">
      <root>
        <mxCell id="0" />
        <mxCell id="1" parent="0" />
        <mxCell id="2" value="Throwable" style="text;html=1;align=center;verticalAlign=middle;resizable=0;points=[];autosize=1;strokeColor=none;fillColor=none;labelBackgroundColor=none;fontColor=#5AA9E6;" parent="1" vertex="1">
          <mxGeometry x="370" y="48" width="80" height="30" as="geometry" />
        </mxCell>
        <mxCell id="3" value="" style="endArrow=none;html=1;rounded=0;labelBackgroundColor=none;strokeColor=#FF6392;fontColor=default;" parent="1" edge="1">
          <mxGeometry width="50" height="50" relative="1" as="geometry">
            <mxPoint x="280" y="190" as="sourcePoint" />
            <mxPoint x="510" y="190" as="targetPoint" />
            <Array as="points">
              <mxPoint x="410" y="70" />
            </Array>
          </mxGeometry>
        </mxCell>
        <mxCell id="4" value="Exception" style="text;html=1;align=center;verticalAlign=middle;resizable=0;points=[];autosize=1;strokeColor=none;fillColor=none;labelBackgroundColor=none;fontColor=#5AA9E6;" parent="1" vertex="1">
          <mxGeometry x="230" y="190" width="80" height="30" as="geometry" />
        </mxCell>
        <mxCell id="5" value="Error" style="text;html=1;align=center;verticalAlign=middle;resizable=0;points=[];autosize=1;strokeColor=none;fillColor=none;labelBackgroundColor=none;fontColor=#5AA9E6;" parent="1" vertex="1">
          <mxGeometry x="500" y="190" width="50" height="30" as="geometry" />
        </mxCell>
        <mxCell id="6" value="" style="endArrow=none;html=1;rounded=0;labelBackgroundColor=none;strokeColor=#FF6392;fontColor=default;" parent="1" edge="1">
          <mxGeometry width="50" height="50" relative="1" as="geometry">
            <mxPoint x="90" y="290" as="sourcePoint" />
            <mxPoint x="170" y="300" as="targetPoint" />
            <Array as="points">
              <mxPoint x="260" y="210" />
            </Array>
          </mxGeometry>
        </mxCell>
        <mxCell id="7" value="" style="endArrow=none;html=1;rounded=0;entryX=0.225;entryY=-0.1;entryDx=0;entryDy=0;entryPerimeter=0;labelBackgroundColor=none;strokeColor=#FF6392;fontColor=default;" parent="1" source="10" target="11" edge="1">
          <mxGeometry width="50" height="50" relative="1" as="geometry">
            <mxPoint x="260" y="330" as="sourcePoint" />
            <mxPoint x="380" y="320" as="targetPoint" />
            <Array as="points">
              <mxPoint x="270" y="210" />
            </Array>
          </mxGeometry>
        </mxCell>
        <mxCell id="8" value="Runtime Exception" style="text;html=1;align=center;verticalAlign=middle;resizable=0;points=[];autosize=1;strokeColor=none;fillColor=none;labelBackgroundColor=none;fontColor=#5AA9E6;" parent="1" vertex="1">
          <mxGeometry x="-30" y="288" width="120" height="30" as="geometry" />
        </mxCell>
        <mxCell id="9" value="IOException" style="text;html=1;align=center;verticalAlign=middle;resizable=0;points=[];autosize=1;strokeColor=none;fillColor=none;labelBackgroundColor=none;fontColor=#5AA9E6;" parent="1" vertex="1">
          <mxGeometry x="130" y="300" width="90" height="30" as="geometry" />
        </mxCell>
        <mxCell id="11" value="SE" style="text;html=1;align=center;verticalAlign=middle;resizable=0;points=[];autosize=1;strokeColor=none;fillColor=none;labelBackgroundColor=none;fontColor=#5AA9E6;" parent="1" vertex="1">
          <mxGeometry x="330" y="300" width="40" height="30" as="geometry" />
        </mxCell>
        <mxCell id="12" value="" style="endArrow=none;html=1;rounded=0;labelBackgroundColor=none;strokeColor=#FF6392;fontColor=default;" parent="1" target="10" edge="1">
          <mxGeometry width="50" height="50" relative="1" as="geometry">
            <mxPoint x="260" y="330" as="sourcePoint" />
            <mxPoint x="380" y="320" as="targetPoint" />
            <Array as="points" />
          </mxGeometry>
        </mxCell>
        <mxCell id="10" value="IE" style="text;html=1;align=center;verticalAlign=middle;resizable=0;points=[];autosize=1;strokeColor=none;fillColor=none;labelBackgroundColor=none;fontColor=#5AA9E6;" parent="1" vertex="1">
          <mxGeometry x="255" y="300" width="30" height="30" as="geometry" />
        </mxCell>
        <mxCell id="13" value="" style="endArrow=none;html=1;rounded=0;labelBackgroundColor=none;strokeColor=#FF6392;fontColor=default;" parent="1" edge="1">
          <mxGeometry width="50" height="50" relative="1" as="geometry">
            <mxPoint x="480" y="300" as="sourcePoint" />
            <mxPoint x="590" y="280" as="targetPoint" />
            <Array as="points">
              <mxPoint x="530" y="210" />
            </Array>
          </mxGeometry>
        </mxCell>
        <mxCell id="14" value="VMError" style="text;html=1;align=center;verticalAlign=middle;resizable=0;points=[];autosize=1;strokeColor=none;fillColor=none;labelBackgroundColor=none;fontColor=#5AA9E6;" parent="1" vertex="1">
          <mxGeometry x="435" y="298" width="70" height="30" as="geometry" />
        </mxCell>
        <mxCell id="15" value=".........................." style="text;html=1;align=center;verticalAlign=middle;resizable=0;points=[];autosize=1;strokeColor=none;fillColor=none;labelBackgroundColor=none;fontColor=#5AA9E6;" parent="1" vertex="1">
          <mxGeometry x="510" y="288" width="110" height="30" as="geometry" />
        </mxCell>
        <mxCell id="16" value="" style="shape=singleArrow;direction=south;whiteSpace=wrap;html=1;labelBackgroundColor=none;fillColor=#FFE45E;strokeColor=#FF6392;fontColor=#5AA9E6;" parent="1" vertex="1">
          <mxGeometry x="-30" y="310" width="10" height="146" as="geometry" />
        </mxCell>
        <mxCell id="17" value="AE" style="text;html=1;align=center;verticalAlign=middle;resizable=0;points=[];autosize=1;strokeColor=none;fillColor=none;labelBackgroundColor=none;fontColor=#5AA9E6;" parent="1" vertex="1">
          <mxGeometry x="-30" y="328" width="40" height="30" as="geometry" />
        </mxCell>
        <mxCell id="18" value="NPE" style="text;html=1;align=center;verticalAlign=middle;resizable=0;points=[];autosize=1;strokeColor=none;fillColor=none;labelBackgroundColor=none;fontColor=#5AA9E6;" parent="1" vertex="1">
          <mxGeometry x="-30" y="368" width="50" height="30" as="geometry" />
        </mxCell>
        <mxCell id="19" value="CCE" style="text;html=1;align=center;verticalAlign=middle;resizable=0;points=[];autosize=1;strokeColor=none;fillColor=none;labelBackgroundColor=none;fontColor=#5AA9E6;" parent="1" vertex="1">
          <mxGeometry x="-30" y="408" width="50" height="30" as="geometry" />
        </mxCell>
        <mxCell id="20" value="" style="shape=singleArrow;direction=south;whiteSpace=wrap;html=1;labelBackgroundColor=none;fillColor=#FFE45E;strokeColor=#FF6392;fontColor=#5AA9E6;" parent="1" vertex="1">
          <mxGeometry x="130" y="318" width="10" height="126" as="geometry" />
        </mxCell>
        <mxCell id="21" value="FNFE" style="text;html=1;align=center;verticalAlign=middle;resizable=0;points=[];autosize=1;strokeColor=none;fillColor=none;labelBackgroundColor=none;fontColor=#5AA9E6;" parent="1" vertex="1">
          <mxGeometry x="130" y="348" width="50" height="30" as="geometry" />
        </mxCell>
        <mxCell id="22" value="EoFException" style="text;html=1;align=center;verticalAlign=middle;resizable=0;points=[];autosize=1;strokeColor=none;fillColor=none;labelBackgroundColor=none;fontColor=#5AA9E6;" parent="1" vertex="1">
          <mxGeometry x="130" y="388" width="100" height="30" as="geometry" />
        </mxCell>
        <mxCell id="23" value="" style="endArrow=none;html=1;rounded=0;exitX=0.485;exitY=0.067;exitDx=0;exitDy=0;exitPerimeter=0;labelBackgroundColor=none;strokeColor=#FF6392;fontColor=default;entryX=0.038;entryY=0.1;entryDx=0;entryDy=0;entryPerimeter=0;" parent="1" source="24" edge="1" target="25">
          <mxGeometry width="50" height="50" relative="1" as="geometry">
            <mxPoint x="420" y="390" as="sourcePoint" />
            <mxPoint x="570" y="420" as="targetPoint" />
            <Array as="points">
              <mxPoint x="468" y="348" />
              <mxPoint x="470" y="320" />
            </Array>
          </mxGeometry>
        </mxCell>
        <mxCell id="24" value="OutOfMemoryError" style="text;html=1;align=center;verticalAlign=middle;resizable=0;points=[];autosize=1;strokeColor=none;fillColor=none;labelBackgroundColor=none;fontColor=#5AA9E6;" parent="1" vertex="1">
          <mxGeometry x="405" y="398" width="130" height="30" as="geometry" />
        </mxCell>
        <mxCell id="25" value="StackOverflowError" style="text;html=1;align=center;verticalAlign=middle;resizable=0;points=[];autosize=1;strokeColor=none;fillColor=none;labelBackgroundColor=none;fontColor=#5AA9E6;" parent="1" vertex="1">
          <mxGeometry x="564" y="398" width="130" height="30" as="geometry" />
        </mxCell>
        <mxCell id="28" value="" style="verticalLabelPosition=bottom;verticalAlign=top;html=1;shape=mxgraph.basic.polygon;polyCoords=[[0.25,0],[0.79,0],[1,0.25],[1,0.75],[0.75,1],[0.25,1],[0,0.75],[0,0.25]];polyline=1;fillColor=none;strokeColor=#FF6392;fontColor=#5AA9E6;" vertex="1" parent="1">
          <mxGeometry x="-72" y="276" width="180" height="197" as="geometry" />
        </mxCell>
        <mxCell id="29" value="&lt;b&gt;Unchecked Exception&lt;/b&gt;" style="text;html=1;align=center;verticalAlign=middle;resizable=0;points=[];autosize=1;strokeColor=none;fillColor=none;fontColor=#5AA9E6;" vertex="1" parent="1">
          <mxGeometry x="-83" y="480" width="156" height="24" as="geometry" />
        </mxCell>
        <mxCell id="30" value="" style="verticalLabelPosition=bottom;verticalAlign=top;html=1;shape=mxgraph.basic.polygon;polyCoords=[[0.25,0],[0.75,0],[1,0.25],[1,0.75],[0.75,1],[0.25,1],[0,0.75],[0,0.25]];polyline=1;fillColor=none;strokeColor=#FF6392;fontColor=#5AA9E6;" vertex="1" parent="1">
          <mxGeometry x="408" y="190" width="328.5" height="300" as="geometry" />
        </mxCell>
        <mxCell id="32" value="&lt;b&gt;Unchecked Exception&lt;/b&gt;" style="text;html=1;align=center;verticalAlign=middle;resizable=0;points=[];autosize=1;strokeColor=none;fillColor=none;fontColor=#5AA9E6;" vertex="1" parent="1">
          <mxGeometry x="487" y="504" width="156" height="24" as="geometry" />
        </mxCell>
      </root>
    </mxGraphModel>
  </diagram>
</mxfile>
